<mxfile host="www.draw.io" modified="2019-12-21T22:58:11.701Z" agent="Mozilla/5.0 (X11; Ubuntu; Linux x86_64; rv:71.0) Gecko/20100101 Firefox/71.0" etag="7ANcvzDwg26m-NUAthKN" version="12.4.3" type="github" pages="1">
  <diagram id="Qfqw_k_tPA8wqY8vzswP" name="Page-1">
    <mxGraphModel dx="1021" dy="542" grid="1" gridSize="10" guides="1" tooltips="1" connect="1" arrows="1" fold="1" page="1" pageScale="1" pageWidth="850" pageHeight="1100" math="0" shadow="0">
      <root>
        <mxCell id="0"/>
        <mxCell id="1" parent="0"/>
        <mxCell id="hbu7lBcHNOax9USATFB8-11" value="Canción" style="swimlane;fontStyle=0;childLayout=stackLayout;horizontal=1;startSize=26;fillColor=#b1ddf0;horizontalStack=0;resizeParent=1;resizeParentMax=0;resizeLast=0;collapsible=1;marginBottom=0;strokeColor=#10739e;" parent="1" vertex="1">
          <mxGeometry x="50" y="40" width="170" height="182" as="geometry"/>
        </mxCell>
        <mxCell id="hbu7lBcHNOax9USATFB8-12" value="ID_Canción: bigSerial" style="text;strokeColor=#d6b656;fillColor=#fff2cc;align=left;verticalAlign=top;spacingLeft=4;spacingRight=4;overflow=hidden;rotatable=0;points=[[0,0.5],[1,0.5]];portConstraint=eastwest;" parent="hbu7lBcHNOax9USATFB8-11" vertex="1">
          <mxGeometry y="26" width="170" height="26" as="geometry"/>
        </mxCell>
        <mxCell id="hbu7lBcHNOax9USATFB8-13" value="Nombre: varchar(25)" style="text;strokeColor=#d6b656;fillColor=#fff2cc;align=left;verticalAlign=top;spacingLeft=4;spacingRight=4;overflow=hidden;rotatable=0;points=[[0,0.5],[1,0.5]];portConstraint=eastwest;" parent="hbu7lBcHNOax9USATFB8-11" vertex="1">
          <mxGeometry y="52" width="170" height="26" as="geometry"/>
        </mxCell>
        <mxCell id="hbu7lBcHNOax9USATFB8-14" value="Ruta: varchar(200)" style="text;strokeColor=#d6b656;fillColor=#fff2cc;align=left;verticalAlign=top;spacingLeft=4;spacingRight=4;overflow=hidden;rotatable=0;points=[[0,0.5],[1,0.5]];portConstraint=eastwest;" parent="hbu7lBcHNOax9USATFB8-11" vertex="1">
          <mxGeometry y="78" width="170" height="26" as="geometry"/>
        </mxCell>
        <mxCell id="hbu7lBcHNOax9USATFB8-15" value="Corazón: boolean" style="text;strokeColor=#d6b656;fillColor=#fff2cc;align=left;verticalAlign=top;spacingLeft=4;spacingRight=4;overflow=hidden;rotatable=0;points=[[0,0.5],[1,0.5]];portConstraint=eastwest;" parent="hbu7lBcHNOax9USATFB8-11" vertex="1">
          <mxGeometry y="104" width="170" height="26" as="geometry"/>
        </mxCell>
        <mxCell id="hbu7lBcHNOax9USATFB8-16" value="Duración: time" style="text;strokeColor=#d6b656;fillColor=#fff2cc;align=left;verticalAlign=top;spacingLeft=4;spacingRight=4;overflow=hidden;rotatable=0;points=[[0,0.5],[1,0.5]];portConstraint=eastwest;" parent="hbu7lBcHNOax9USATFB8-11" vertex="1">
          <mxGeometry y="130" width="170" height="26" as="geometry"/>
        </mxCell>
        <mxCell id="hbu7lBcHNOax9USATFB8-17" value="Fecha_Lanzamiento: date" style="text;strokeColor=#d6b656;fillColor=#fff2cc;align=left;verticalAlign=top;spacingLeft=4;spacingRight=4;overflow=hidden;rotatable=0;points=[[0,0.5],[1,0.5]];portConstraint=eastwest;" parent="hbu7lBcHNOax9USATFB8-11" vertex="1">
          <mxGeometry y="156" width="170" height="26" as="geometry"/>
        </mxCell>
        <mxCell id="hbu7lBcHNOax9USATFB8-18" value="Albúm" style="swimlane;fontStyle=0;childLayout=stackLayout;horizontal=1;startSize=26;fillColor=#b1ddf0;horizontalStack=0;resizeParent=1;resizeParentMax=0;resizeLast=0;collapsible=1;marginBottom=0;strokeColor=#10739e;" parent="1" vertex="1">
          <mxGeometry x="280" y="40" width="200" height="182" as="geometry"/>
        </mxCell>
        <mxCell id="hbu7lBcHNOax9USATFB8-19" value="ID_Album: bigSerial" style="text;strokeColor=#d6b656;fillColor=#fff2cc;align=left;verticalAlign=top;spacingLeft=4;spacingRight=4;overflow=hidden;rotatable=0;points=[[0,0.5],[1,0.5]];portConstraint=eastwest;" parent="hbu7lBcHNOax9USATFB8-18" vertex="1">
          <mxGeometry y="26" width="200" height="26" as="geometry"/>
        </mxCell>
        <mxCell id="hbu7lBcHNOax9USATFB8-20" value="Nombre: varchar(25)" style="text;strokeColor=#d6b656;fillColor=#fff2cc;align=left;verticalAlign=top;spacingLeft=4;spacingRight=4;overflow=hidden;rotatable=0;points=[[0,0.5],[1,0.5]];portConstraint=eastwest;" parent="hbu7lBcHNOax9USATFB8-18" vertex="1">
          <mxGeometry y="52" width="200" height="26" as="geometry"/>
        </mxCell>
        <mxCell id="hbu7lBcHNOax9USATFB8-21" value="Corazón: boolean" style="text;strokeColor=#d6b656;fillColor=#fff2cc;align=left;verticalAlign=top;spacingLeft=4;spacingRight=4;overflow=hidden;rotatable=0;points=[[0,0.5],[1,0.5]];portConstraint=eastwest;" parent="hbu7lBcHNOax9USATFB8-18" vertex="1">
          <mxGeometry y="78" width="200" height="26" as="geometry"/>
        </mxCell>
        <mxCell id="hbu7lBcHNOax9USATFB8-22" value="Duración: time" style="text;strokeColor=#d6b656;fillColor=#fff2cc;align=left;verticalAlign=top;spacingLeft=4;spacingRight=4;overflow=hidden;rotatable=0;points=[[0,0.5],[1,0.5]];portConstraint=eastwest;" parent="hbu7lBcHNOax9USATFB8-18" vertex="1">
          <mxGeometry y="104" width="200" height="26" as="geometry"/>
        </mxCell>
        <mxCell id="hbu7lBcHNOax9USATFB8-23" value="Descripción: varchar(100)" style="text;strokeColor=#d6b656;fillColor=#fff2cc;align=left;verticalAlign=top;spacingLeft=4;spacingRight=4;overflow=hidden;rotatable=0;points=[[0,0.5],[1,0.5]];portConstraint=eastwest;" parent="hbu7lBcHNOax9USATFB8-18" vertex="1">
          <mxGeometry y="130" width="200" height="26" as="geometry"/>
        </mxCell>
        <mxCell id="hbu7lBcHNOax9USATFB8-24" value="Fecha_Lanzamiento: date" style="text;strokeColor=#d6b656;fillColor=#fff2cc;align=left;verticalAlign=top;spacingLeft=4;spacingRight=4;overflow=hidden;rotatable=0;points=[[0,0.5],[1,0.5]];portConstraint=eastwest;" parent="hbu7lBcHNOax9USATFB8-18" vertex="1">
          <mxGeometry y="156" width="200" height="26" as="geometry"/>
        </mxCell>
        <mxCell id="hbu7lBcHNOax9USATFB8-25" value="Género" style="swimlane;fontStyle=0;childLayout=stackLayout;horizontal=1;startSize=26;fillColor=#b1ddf0;horizontalStack=0;resizeParent=1;resizeParentMax=0;resizeLast=0;collapsible=1;marginBottom=0;strokeColor=#10739e;" parent="1" vertex="1">
          <mxGeometry x="540" y="40" width="200" height="104" as="geometry"/>
        </mxCell>
        <mxCell id="hbu7lBcHNOax9USATFB8-26" value="ID_Genero: bigSerial" style="text;strokeColor=#d6b656;fillColor=#fff2cc;align=left;verticalAlign=top;spacingLeft=4;spacingRight=4;overflow=hidden;rotatable=0;points=[[0,0.5],[1,0.5]];portConstraint=eastwest;" parent="hbu7lBcHNOax9USATFB8-25" vertex="1">
          <mxGeometry y="26" width="200" height="26" as="geometry"/>
        </mxCell>
        <mxCell id="hbu7lBcHNOax9USATFB8-27" value="Nombre: varchar(50)" style="text;strokeColor=#d6b656;fillColor=#fff2cc;align=left;verticalAlign=top;spacingLeft=4;spacingRight=4;overflow=hidden;rotatable=0;points=[[0,0.5],[1,0.5]];portConstraint=eastwest;" parent="hbu7lBcHNOax9USATFB8-25" vertex="1">
          <mxGeometry y="52" width="200" height="26" as="geometry"/>
        </mxCell>
        <mxCell id="hbu7lBcHNOax9USATFB8-28" value="Descripción: varchar(100)" style="text;strokeColor=#d6b656;fillColor=#fff2cc;align=left;verticalAlign=top;spacingLeft=4;spacingRight=4;overflow=hidden;rotatable=0;points=[[0,0.5],[1,0.5]];portConstraint=eastwest;" parent="hbu7lBcHNOax9USATFB8-25" vertex="1">
          <mxGeometry y="78" width="200" height="26" as="geometry"/>
        </mxCell>
        <mxCell id="hbu7lBcHNOax9USATFB8-29" value="Canción_Albúm" style="swimlane;fontStyle=0;childLayout=stackLayout;horizontal=1;startSize=26;fillColor=#b1ddf0;horizontalStack=0;resizeParent=1;resizeParentMax=0;resizeLast=0;collapsible=1;marginBottom=0;strokeColor=#10739e;" parent="1" vertex="1">
          <mxGeometry x="50" y="250" width="140" height="104" as="geometry"/>
        </mxCell>
        <mxCell id="hbu7lBcHNOax9USATFB8-30" value="ID_CA: bigSerial" style="text;strokeColor=#d6b656;fillColor=#fff2cc;align=left;verticalAlign=top;spacingLeft=4;spacingRight=4;overflow=hidden;rotatable=0;points=[[0,0.5],[1,0.5]];portConstraint=eastwest;" parent="hbu7lBcHNOax9USATFB8-29" vertex="1">
          <mxGeometry y="26" width="140" height="26" as="geometry"/>
        </mxCell>
        <mxCell id="hbu7lBcHNOax9USATFB8-31" value="ID_Canción: bigInt" style="text;strokeColor=#d6b656;fillColor=#fff2cc;align=left;verticalAlign=top;spacingLeft=4;spacingRight=4;overflow=hidden;rotatable=0;points=[[0,0.5],[1,0.5]];portConstraint=eastwest;" parent="hbu7lBcHNOax9USATFB8-29" vertex="1">
          <mxGeometry y="52" width="140" height="26" as="geometry"/>
        </mxCell>
        <mxCell id="hbu7lBcHNOax9USATFB8-32" value="ID_Album: bigInt" style="text;strokeColor=#d6b656;fillColor=#fff2cc;align=left;verticalAlign=top;spacingLeft=4;spacingRight=4;overflow=hidden;rotatable=0;points=[[0,0.5],[1,0.5]];portConstraint=eastwest;" parent="hbu7lBcHNOax9USATFB8-29" vertex="1">
          <mxGeometry y="78" width="140" height="26" as="geometry"/>
        </mxCell>
        <mxCell id="hbu7lBcHNOax9USATFB8-33" value="Canción_Género" style="swimlane;fontStyle=0;childLayout=stackLayout;horizontal=1;startSize=26;fillColor=#b1ddf0;horizontalStack=0;resizeParent=1;resizeParentMax=0;resizeLast=0;collapsible=1;marginBottom=0;strokeColor=#10739e;" parent="1" vertex="1">
          <mxGeometry x="280" y="248.5" width="140" height="104" as="geometry"/>
        </mxCell>
        <mxCell id="hbu7lBcHNOax9USATFB8-34" value="ID_CG: bigSerial" style="text;strokeColor=#d6b656;fillColor=#fff2cc;align=left;verticalAlign=top;spacingLeft=4;spacingRight=4;overflow=hidden;rotatable=0;points=[[0,0.5],[1,0.5]];portConstraint=eastwest;" parent="hbu7lBcHNOax9USATFB8-33" vertex="1">
          <mxGeometry y="26" width="140" height="26" as="geometry"/>
        </mxCell>
        <mxCell id="hbu7lBcHNOax9USATFB8-35" value="ID_Canción: bigInt" style="text;strokeColor=#d6b656;fillColor=#fff2cc;align=left;verticalAlign=top;spacingLeft=4;spacingRight=4;overflow=hidden;rotatable=0;points=[[0,0.5],[1,0.5]];portConstraint=eastwest;" parent="hbu7lBcHNOax9USATFB8-33" vertex="1">
          <mxGeometry y="52" width="140" height="26" as="geometry"/>
        </mxCell>
        <mxCell id="hbu7lBcHNOax9USATFB8-36" value="ID_Genero: bigInt" style="text;strokeColor=#d6b656;fillColor=#fff2cc;align=left;verticalAlign=top;spacingLeft=4;spacingRight=4;overflow=hidden;rotatable=0;points=[[0,0.5],[1,0.5]];portConstraint=eastwest;" parent="hbu7lBcHNOax9USATFB8-33" vertex="1">
          <mxGeometry y="78" width="140" height="26" as="geometry"/>
        </mxCell>
        <mxCell id="hbu7lBcHNOax9USATFB8-37" value="Albúm_Género" style="swimlane;fontStyle=0;childLayout=stackLayout;horizontal=1;startSize=26;fillColor=#b1ddf0;horizontalStack=0;resizeParent=1;resizeParentMax=0;resizeLast=0;collapsible=1;marginBottom=0;strokeColor=#10739e;" parent="1" vertex="1">
          <mxGeometry x="540" y="250" width="160" height="104" as="geometry"/>
        </mxCell>
        <mxCell id="hbu7lBcHNOax9USATFB8-38" value="ID_AlbGen: bigSerial" style="text;strokeColor=#d6b656;fillColor=#fff2cc;align=left;verticalAlign=top;spacingLeft=4;spacingRight=4;overflow=hidden;rotatable=0;points=[[0,0.5],[1,0.5]];portConstraint=eastwest;" parent="hbu7lBcHNOax9USATFB8-37" vertex="1">
          <mxGeometry y="26" width="160" height="26" as="geometry"/>
        </mxCell>
        <mxCell id="hbu7lBcHNOax9USATFB8-39" value="ID_Album: bigInt" style="text;strokeColor=#d6b656;fillColor=#fff2cc;align=left;verticalAlign=top;spacingLeft=4;spacingRight=4;overflow=hidden;rotatable=0;points=[[0,0.5],[1,0.5]];portConstraint=eastwest;" parent="hbu7lBcHNOax9USATFB8-37" vertex="1">
          <mxGeometry y="52" width="160" height="26" as="geometry"/>
        </mxCell>
        <mxCell id="hbu7lBcHNOax9USATFB8-40" value="ID_Genero: bigInt" style="text;strokeColor=#d6b656;fillColor=#fff2cc;align=left;verticalAlign=top;spacingLeft=4;spacingRight=4;overflow=hidden;rotatable=0;points=[[0,0.5],[1,0.5]];portConstraint=eastwest;" parent="hbu7lBcHNOax9USATFB8-37" vertex="1">
          <mxGeometry y="78" width="160" height="26" as="geometry"/>
        </mxCell>
        <mxCell id="hbu7lBcHNOax9USATFB8-41" value="Productor_Canción" style="swimlane;fontStyle=0;childLayout=stackLayout;horizontal=1;startSize=26;fillColor=#b1ddf0;horizontalStack=0;resizeParent=1;resizeParentMax=0;resizeLast=0;collapsible=1;marginBottom=0;strokeColor=#10739e;" parent="1" vertex="1">
          <mxGeometry x="50" y="380" width="160" height="104" as="geometry"/>
        </mxCell>
        <mxCell id="hbu7lBcHNOax9USATFB8-42" value="ID_PC: bigSerial" style="text;strokeColor=#d6b656;fillColor=#fff2cc;align=left;verticalAlign=top;spacingLeft=4;spacingRight=4;overflow=hidden;rotatable=0;points=[[0,0.5],[1,0.5]];portConstraint=eastwest;" parent="hbu7lBcHNOax9USATFB8-41" vertex="1">
          <mxGeometry y="26" width="160" height="26" as="geometry"/>
        </mxCell>
        <mxCell id="hbu7lBcHNOax9USATFB8-43" value="ID_Productor: bigInt" style="text;strokeColor=#d6b656;fillColor=#fff2cc;align=left;verticalAlign=top;spacingLeft=4;spacingRight=4;overflow=hidden;rotatable=0;points=[[0,0.5],[1,0.5]];portConstraint=eastwest;" parent="hbu7lBcHNOax9USATFB8-41" vertex="1">
          <mxGeometry y="52" width="160" height="26" as="geometry"/>
        </mxCell>
        <mxCell id="hbu7lBcHNOax9USATFB8-44" value="ID_Canción: bigInt" style="text;strokeColor=#d6b656;fillColor=#fff2cc;align=left;verticalAlign=top;spacingLeft=4;spacingRight=4;overflow=hidden;rotatable=0;points=[[0,0.5],[1,0.5]];portConstraint=eastwest;" parent="hbu7lBcHNOax9USATFB8-41" vertex="1">
          <mxGeometry y="78" width="160" height="26" as="geometry"/>
        </mxCell>
        <mxCell id="hbu7lBcHNOax9USATFB8-46" value="Productor" style="swimlane;fontStyle=0;childLayout=stackLayout;horizontal=1;startSize=26;fillColor=#b1ddf0;horizontalStack=0;resizeParent=1;resizeParentMax=0;resizeLast=0;collapsible=1;marginBottom=0;strokeColor=#10739e;" parent="1" vertex="1">
          <mxGeometry x="280" y="379" width="220" height="156" as="geometry"/>
        </mxCell>
        <mxCell id="hbu7lBcHNOax9USATFB8-47" value="ID_Producto: biSerial" style="text;strokeColor=#d6b656;fillColor=#fff2cc;align=left;verticalAlign=top;spacingLeft=4;spacingRight=4;overflow=hidden;rotatable=0;points=[[0,0.5],[1,0.5]];portConstraint=eastwest;" parent="hbu7lBcHNOax9USATFB8-46" vertex="1">
          <mxGeometry y="26" width="220" height="26" as="geometry"/>
        </mxCell>
        <mxCell id="hbu7lBcHNOax9USATFB8-48" value="Primer_Nombre: varchar(25)" style="text;strokeColor=#d6b656;fillColor=#fff2cc;align=left;verticalAlign=top;spacingLeft=4;spacingRight=4;overflow=hidden;rotatable=0;points=[[0,0.5],[1,0.5]];portConstraint=eastwest;" parent="hbu7lBcHNOax9USATFB8-46" vertex="1">
          <mxGeometry y="52" width="220" height="26" as="geometry"/>
        </mxCell>
        <mxCell id="hbu7lBcHNOax9USATFB8-49" value="Primer_Apellido: varchar(25)" style="text;strokeColor=#d6b656;fillColor=#fff2cc;align=left;verticalAlign=top;spacingLeft=4;spacingRight=4;overflow=hidden;rotatable=0;points=[[0,0.5],[1,0.5]];portConstraint=eastwest;" parent="hbu7lBcHNOax9USATFB8-46" vertex="1">
          <mxGeometry y="78" width="220" height="26" as="geometry"/>
        </mxCell>
        <mxCell id="hbu7lBcHNOax9USATFB8-50" value="Nombre_Artistico: varchar(25)" style="text;strokeColor=#d6b656;fillColor=#fff2cc;align=left;verticalAlign=top;spacingLeft=4;spacingRight=4;overflow=hidden;rotatable=0;points=[[0,0.5],[1,0.5]];portConstraint=eastwest;" parent="hbu7lBcHNOax9USATFB8-46" vertex="1">
          <mxGeometry y="104" width="220" height="26" as="geometry"/>
        </mxCell>
        <mxCell id="hbu7lBcHNOax9USATFB8-51" value="Biografia: varchar(200)" style="text;strokeColor=#d6b656;fillColor=#fff2cc;align=left;verticalAlign=top;spacingLeft=4;spacingRight=4;overflow=hidden;rotatable=0;points=[[0,0.5],[1,0.5]];portConstraint=eastwest;" parent="hbu7lBcHNOax9USATFB8-46" vertex="1">
          <mxGeometry y="130" width="220" height="26" as="geometry"/>
        </mxCell>
        <mxCell id="hbu7lBcHNOax9USATFB8-52" value="Productor_Album" style="swimlane;fontStyle=0;childLayout=stackLayout;horizontal=1;startSize=26;fillColor=#b1ddf0;horizontalStack=0;resizeParent=1;resizeParentMax=0;resizeLast=0;collapsible=1;marginBottom=0;strokeColor=#10739e;" parent="1" vertex="1">
          <mxGeometry x="540" y="380" width="160" height="104" as="geometry"/>
        </mxCell>
        <mxCell id="hbu7lBcHNOax9USATFB8-53" value="ID_PA: bigSerial" style="text;strokeColor=#d6b656;fillColor=#fff2cc;align=left;verticalAlign=top;spacingLeft=4;spacingRight=4;overflow=hidden;rotatable=0;points=[[0,0.5],[1,0.5]];portConstraint=eastwest;" parent="hbu7lBcHNOax9USATFB8-52" vertex="1">
          <mxGeometry y="26" width="160" height="26" as="geometry"/>
        </mxCell>
        <mxCell id="hbu7lBcHNOax9USATFB8-54" value="ID_Productor: bigInt" style="text;strokeColor=#d6b656;fillColor=#fff2cc;align=left;verticalAlign=top;spacingLeft=4;spacingRight=4;overflow=hidden;rotatable=0;points=[[0,0.5],[1,0.5]];portConstraint=eastwest;" parent="hbu7lBcHNOax9USATFB8-52" vertex="1">
          <mxGeometry y="52" width="160" height="26" as="geometry"/>
        </mxCell>
        <mxCell id="hbu7lBcHNOax9USATFB8-55" value="ID_Album: bigInt" style="text;strokeColor=#d6b656;fillColor=#fff2cc;align=left;verticalAlign=top;spacingLeft=4;spacingRight=4;overflow=hidden;rotatable=0;points=[[0,0.5],[1,0.5]];portConstraint=eastwest;" parent="hbu7lBcHNOax9USATFB8-52" vertex="1">
          <mxGeometry y="78" width="160" height="26" as="geometry"/>
        </mxCell>
        <mxCell id="hbu7lBcHNOax9USATFB8-56" value="Canción_Cantante" style="swimlane;fontStyle=0;childLayout=stackLayout;horizontal=1;startSize=26;fillColor=#b1ddf0;horizontalStack=0;resizeParent=1;resizeParentMax=0;resizeLast=0;collapsible=1;marginBottom=0;strokeColor=#10739e;" parent="1" vertex="1">
          <mxGeometry x="50" y="560" width="160" height="104" as="geometry"/>
        </mxCell>
        <mxCell id="hbu7lBcHNOax9USATFB8-57" value="ID_CC: bigSerial" style="text;strokeColor=#d6b656;fillColor=#fff2cc;align=left;verticalAlign=top;spacingLeft=4;spacingRight=4;overflow=hidden;rotatable=0;points=[[0,0.5],[1,0.5]];portConstraint=eastwest;" parent="hbu7lBcHNOax9USATFB8-56" vertex="1">
          <mxGeometry y="26" width="160" height="26" as="geometry"/>
        </mxCell>
        <mxCell id="hbu7lBcHNOax9USATFB8-58" value="ID_CanciónA: bigInt" style="text;strokeColor=#d6b656;fillColor=#fff2cc;align=left;verticalAlign=top;spacingLeft=4;spacingRight=4;overflow=hidden;rotatable=0;points=[[0,0.5],[1,0.5]];portConstraint=eastwest;" parent="hbu7lBcHNOax9USATFB8-56" vertex="1">
          <mxGeometry y="52" width="160" height="26" as="geometry"/>
        </mxCell>
        <mxCell id="hbu7lBcHNOax9USATFB8-59" value="ID_Cantante: bigInt" style="text;strokeColor=#d6b656;fillColor=#fff2cc;align=left;verticalAlign=top;spacingLeft=4;spacingRight=4;overflow=hidden;rotatable=0;points=[[0,0.5],[1,0.5]];portConstraint=eastwest;" parent="hbu7lBcHNOax9USATFB8-56" vertex="1">
          <mxGeometry y="78" width="160" height="26" as="geometry"/>
        </mxCell>
        <mxCell id="hbu7lBcHNOax9USATFB8-64" value="Cantante" style="swimlane;fontStyle=0;childLayout=stackLayout;horizontal=1;startSize=26;fillColor=#b1ddf0;horizontalStack=0;resizeParent=1;resizeParentMax=0;resizeLast=0;collapsible=1;marginBottom=0;strokeColor=#10739e;" parent="1" vertex="1">
          <mxGeometry x="280" y="560" width="220" height="156" as="geometry"/>
        </mxCell>
        <mxCell id="hbu7lBcHNOax9USATFB8-65" value="ID_Cantante: biSerial" style="text;strokeColor=#d6b656;fillColor=#fff2cc;align=left;verticalAlign=top;spacingLeft=4;spacingRight=4;overflow=hidden;rotatable=0;points=[[0,0.5],[1,0.5]];portConstraint=eastwest;" parent="hbu7lBcHNOax9USATFB8-64" vertex="1">
          <mxGeometry y="26" width="220" height="26" as="geometry"/>
        </mxCell>
        <mxCell id="hbu7lBcHNOax9USATFB8-66" value="Primer_Nombre: varchar(25)" style="text;strokeColor=#d6b656;fillColor=#fff2cc;align=left;verticalAlign=top;spacingLeft=4;spacingRight=4;overflow=hidden;rotatable=0;points=[[0,0.5],[1,0.5]];portConstraint=eastwest;" parent="hbu7lBcHNOax9USATFB8-64" vertex="1">
          <mxGeometry y="52" width="220" height="26" as="geometry"/>
        </mxCell>
        <mxCell id="hbu7lBcHNOax9USATFB8-67" value="Primer_Apellido: varchar(25)" style="text;strokeColor=#d6b656;fillColor=#fff2cc;align=left;verticalAlign=top;spacingLeft=4;spacingRight=4;overflow=hidden;rotatable=0;points=[[0,0.5],[1,0.5]];portConstraint=eastwest;" parent="hbu7lBcHNOax9USATFB8-64" vertex="1">
          <mxGeometry y="78" width="220" height="26" as="geometry"/>
        </mxCell>
        <mxCell id="hbu7lBcHNOax9USATFB8-68" value="Nombre_Artistico: varchar(25)" style="text;strokeColor=#d6b656;fillColor=#fff2cc;align=left;verticalAlign=top;spacingLeft=4;spacingRight=4;overflow=hidden;rotatable=0;points=[[0,0.5],[1,0.5]];portConstraint=eastwest;" parent="hbu7lBcHNOax9USATFB8-64" vertex="1">
          <mxGeometry y="104" width="220" height="26" as="geometry"/>
        </mxCell>
        <mxCell id="hbu7lBcHNOax9USATFB8-69" value="Biografia: varchar(200)" style="text;strokeColor=#d6b656;fillColor=#fff2cc;align=left;verticalAlign=top;spacingLeft=4;spacingRight=4;overflow=hidden;rotatable=0;points=[[0,0.5],[1,0.5]];portConstraint=eastwest;" parent="hbu7lBcHNOax9USATFB8-64" vertex="1">
          <mxGeometry y="130" width="220" height="26" as="geometry"/>
        </mxCell>
        <mxCell id="hbu7lBcHNOax9USATFB8-70" value="Cantante_Albúm" style="swimlane;fontStyle=0;childLayout=stackLayout;horizontal=1;startSize=26;fillColor=#b1ddf0;horizontalStack=0;resizeParent=1;resizeParentMax=0;resizeLast=0;collapsible=1;marginBottom=0;strokeColor=#10739e;" parent="1" vertex="1">
          <mxGeometry x="540" y="560" width="160" height="104" as="geometry"/>
        </mxCell>
        <mxCell id="hbu7lBcHNOax9USATFB8-71" value="ID_CA: bigSerial" style="text;strokeColor=#d6b656;fillColor=#fff2cc;align=left;verticalAlign=top;spacingLeft=4;spacingRight=4;overflow=hidden;rotatable=0;points=[[0,0.5],[1,0.5]];portConstraint=eastwest;" parent="hbu7lBcHNOax9USATFB8-70" vertex="1">
          <mxGeometry y="26" width="160" height="26" as="geometry"/>
        </mxCell>
        <mxCell id="hbu7lBcHNOax9USATFB8-72" value="ID_Cantante: bigInt" style="text;strokeColor=#d6b656;fillColor=#fff2cc;align=left;verticalAlign=top;spacingLeft=4;spacingRight=4;overflow=hidden;rotatable=0;points=[[0,0.5],[1,0.5]];portConstraint=eastwest;" parent="hbu7lBcHNOax9USATFB8-70" vertex="1">
          <mxGeometry y="52" width="160" height="26" as="geometry"/>
        </mxCell>
        <mxCell id="hbu7lBcHNOax9USATFB8-73" value="ID_Album: bigInt" style="text;strokeColor=#d6b656;fillColor=#fff2cc;align=left;verticalAlign=top;spacingLeft=4;spacingRight=4;overflow=hidden;rotatable=0;points=[[0,0.5],[1,0.5]];portConstraint=eastwest;" parent="hbu7lBcHNOax9USATFB8-70" vertex="1">
          <mxGeometry y="78" width="160" height="26" as="geometry"/>
        </mxCell>
        <mxCell id="hbu7lBcHNOax9USATFB8-74" value="PlayList_CanciónA" style="swimlane;fontStyle=0;childLayout=stackLayout;horizontal=1;startSize=26;fillColor=#b1ddf0;horizontalStack=0;resizeParent=1;resizeParentMax=0;resizeLast=0;collapsible=1;marginBottom=0;strokeColor=#10739e;" parent="1" vertex="1">
          <mxGeometry x="50" y="740" width="140" height="104" as="geometry"/>
        </mxCell>
        <mxCell id="hbu7lBcHNOax9USATFB8-75" value="ID_PCA: bigSerial" style="text;strokeColor=#d6b656;fillColor=#fff2cc;align=left;verticalAlign=top;spacingLeft=4;spacingRight=4;overflow=hidden;rotatable=0;points=[[0,0.5],[1,0.5]];portConstraint=eastwest;" parent="hbu7lBcHNOax9USATFB8-74" vertex="1">
          <mxGeometry y="26" width="140" height="26" as="geometry"/>
        </mxCell>
        <mxCell id="hbu7lBcHNOax9USATFB8-76" value="ID_CA: bigInt" style="text;strokeColor=#d6b656;fillColor=#fff2cc;align=left;verticalAlign=top;spacingLeft=4;spacingRight=4;overflow=hidden;rotatable=0;points=[[0,0.5],[1,0.5]];portConstraint=eastwest;" parent="hbu7lBcHNOax9USATFB8-74" vertex="1">
          <mxGeometry y="52" width="140" height="26" as="geometry"/>
        </mxCell>
        <mxCell id="hbu7lBcHNOax9USATFB8-77" value="ID_Playlist: bigInt" style="text;strokeColor=#d6b656;fillColor=#fff2cc;align=left;verticalAlign=top;spacingLeft=4;spacingRight=4;overflow=hidden;rotatable=0;points=[[0,0.5],[1,0.5]];portConstraint=eastwest;" parent="hbu7lBcHNOax9USATFB8-74" vertex="1">
          <mxGeometry y="78" width="140" height="26" as="geometry"/>
        </mxCell>
        <mxCell id="hbu7lBcHNOax9USATFB8-78" value="PlayList" style="swimlane;fontStyle=0;childLayout=stackLayout;horizontal=1;startSize=26;fillColor=#b1ddf0;horizontalStack=0;resizeParent=1;resizeParentMax=0;resizeLast=0;collapsible=1;marginBottom=0;strokeColor=#10739e;" parent="1" vertex="1">
          <mxGeometry x="280" y="740" width="220" height="234" as="geometry"/>
        </mxCell>
        <mxCell id="hbu7lBcHNOax9USATFB8-79" value="ID_PlayList: bigSerial" style="text;align=left;verticalAlign=top;spacingLeft=4;spacingRight=4;overflow=hidden;rotatable=0;points=[[0,0.5],[1,0.5]];portConstraint=eastwest;fillColor=#fff2cc;strokeColor=#d6b656;" parent="hbu7lBcHNOax9USATFB8-78" vertex="1">
          <mxGeometry y="26" width="220" height="26" as="geometry"/>
        </mxCell>
        <mxCell id="hbu7lBcHNOax9USATFB8-80" value="Nombre: varchar(50)" style="text;strokeColor=#d6b656;fillColor=#fff2cc;align=left;verticalAlign=top;spacingLeft=4;spacingRight=4;overflow=hidden;rotatable=0;points=[[0,0.5],[1,0.5]];portConstraint=eastwest;" parent="hbu7lBcHNOax9USATFB8-78" vertex="1">
          <mxGeometry y="52" width="220" height="26" as="geometry"/>
        </mxCell>
        <mxCell id="hbu7lBcHNOax9USATFB8-81" value="Corazón: boolean" style="text;strokeColor=#d6b656;fillColor=#fff2cc;align=left;verticalAlign=top;spacingLeft=4;spacingRight=4;overflow=hidden;rotatable=0;points=[[0,0.5],[1,0.5]];portConstraint=eastwest;" parent="hbu7lBcHNOax9USATFB8-78" vertex="1">
          <mxGeometry y="78" width="220" height="26" as="geometry"/>
        </mxCell>
        <mxCell id="hbu7lBcHNOax9USATFB8-82" value="Duración: time" style="text;strokeColor=#d6b656;fillColor=#fff2cc;align=left;verticalAlign=top;spacingLeft=4;spacingRight=4;overflow=hidden;rotatable=0;points=[[0,0.5],[1,0.5]];portConstraint=eastwest;" parent="hbu7lBcHNOax9USATFB8-78" vertex="1">
          <mxGeometry y="104" width="220" height="26" as="geometry"/>
        </mxCell>
        <mxCell id="hbu7lBcHNOax9USATFB8-83" value="Fecha_Creación: date" style="text;strokeColor=#d6b656;fillColor=#fff2cc;align=left;verticalAlign=top;spacingLeft=4;spacingRight=4;overflow=hidden;rotatable=0;points=[[0,0.5],[1,0.5]];portConstraint=eastwest;" parent="hbu7lBcHNOax9USATFB8-78" vertex="1">
          <mxGeometry y="130" width="220" height="26" as="geometry"/>
        </mxCell>
        <mxCell id="hbu7lBcHNOax9USATFB8-84" value="Fecha_Modificación: date" style="text;strokeColor=#d6b656;fillColor=#fff2cc;align=left;verticalAlign=top;spacingLeft=4;spacingRight=4;overflow=hidden;rotatable=0;points=[[0,0.5],[1,0.5]];portConstraint=eastwest;" parent="hbu7lBcHNOax9USATFB8-78" vertex="1">
          <mxGeometry y="156" width="220" height="26" as="geometry"/>
        </mxCell>
        <mxCell id="hbu7lBcHNOax9USATFB8-85" value="Descripción: varchar(200)" style="text;strokeColor=#d6b656;fillColor=#fff2cc;align=left;verticalAlign=top;spacingLeft=4;spacingRight=4;overflow=hidden;rotatable=0;points=[[0,0.5],[1,0.5]];portConstraint=eastwest;" parent="hbu7lBcHNOax9USATFB8-78" vertex="1">
          <mxGeometry y="182" width="220" height="26" as="geometry"/>
        </mxCell>
        <mxCell id="hbu7lBcHNOax9USATFB8-160" value="ID_Usuario: bigInt" style="text;strokeColor=#d6b656;fillColor=#fff2cc;align=left;verticalAlign=top;spacingLeft=4;spacingRight=4;overflow=hidden;rotatable=0;points=[[0,0.5],[1,0.5]];portConstraint=eastwest;" parent="hbu7lBcHNOax9USATFB8-78" vertex="1">
          <mxGeometry y="208" width="220" height="26" as="geometry"/>
        </mxCell>
        <mxCell id="hbu7lBcHNOax9USATFB8-86" value="PlayList_Albúm" style="swimlane;fontStyle=0;childLayout=stackLayout;horizontal=1;startSize=26;fillColor=#b1ddf0;horizontalStack=0;resizeParent=1;resizeParentMax=0;resizeLast=0;collapsible=1;marginBottom=0;strokeColor=#10739e;" parent="1" vertex="1">
          <mxGeometry x="540" y="740" width="140" height="104" as="geometry"/>
        </mxCell>
        <mxCell id="hbu7lBcHNOax9USATFB8-87" value="ID_PA: bigSerial" style="text;strokeColor=#d6b656;fillColor=#fff2cc;align=left;verticalAlign=top;spacingLeft=4;spacingRight=4;overflow=hidden;rotatable=0;points=[[0,0.5],[1,0.5]];portConstraint=eastwest;" parent="hbu7lBcHNOax9USATFB8-86" vertex="1">
          <mxGeometry y="26" width="140" height="26" as="geometry"/>
        </mxCell>
        <mxCell id="hbu7lBcHNOax9USATFB8-88" value="ID_PlayList: bigInt" style="text;strokeColor=#d6b656;fillColor=#fff2cc;align=left;verticalAlign=top;spacingLeft=4;spacingRight=4;overflow=hidden;rotatable=0;points=[[0,0.5],[1,0.5]];portConstraint=eastwest;" parent="hbu7lBcHNOax9USATFB8-86" vertex="1">
          <mxGeometry y="52" width="140" height="26" as="geometry"/>
        </mxCell>
        <mxCell id="hbu7lBcHNOax9USATFB8-89" value="ID_Album: bigInt" style="text;strokeColor=#d6b656;fillColor=#fff2cc;align=left;verticalAlign=top;spacingLeft=4;spacingRight=4;overflow=hidden;rotatable=0;points=[[0,0.5],[1,0.5]];portConstraint=eastwest;" parent="hbu7lBcHNOax9USATFB8-86" vertex="1">
          <mxGeometry y="78" width="140" height="26" as="geometry"/>
        </mxCell>
        <mxCell id="hbu7lBcHNOax9USATFB8-90" value="Usuario" style="swimlane;fontStyle=0;childLayout=stackLayout;horizontal=1;startSize=26;fillColor=#b1ddf0;horizontalStack=0;resizeParent=1;resizeParentMax=0;resizeLast=0;collapsible=1;marginBottom=0;strokeColor=#10739e;" parent="1" vertex="1">
          <mxGeometry x="50" y="1040" width="190" height="208" as="geometry"/>
        </mxCell>
        <mxCell id="hbu7lBcHNOax9USATFB8-91" value="ID_Usuario: bigSerial" style="text;strokeColor=#d6b656;fillColor=#fff2cc;align=left;verticalAlign=top;spacingLeft=4;spacingRight=4;overflow=hidden;rotatable=0;points=[[0,0.5],[1,0.5]];portConstraint=eastwest;" parent="hbu7lBcHNOax9USATFB8-90" vertex="1">
          <mxGeometry y="26" width="190" height="26" as="geometry"/>
        </mxCell>
        <mxCell id="hbu7lBcHNOax9USATFB8-92" value="Nombre: varchar(150)" style="text;strokeColor=#d6b656;fillColor=#fff2cc;align=left;verticalAlign=top;spacingLeft=4;spacingRight=4;overflow=hidden;rotatable=0;points=[[0,0.5],[1,0.5]];portConstraint=eastwest;" parent="hbu7lBcHNOax9USATFB8-90" vertex="1">
          <mxGeometry y="52" width="190" height="26" as="geometry"/>
        </mxCell>
        <mxCell id="hbu7lBcHNOax9USATFB8-93" value="Contraseña: varchar(150)" style="text;strokeColor=#d6b656;fillColor=#fff2cc;align=left;verticalAlign=top;spacingLeft=4;spacingRight=4;overflow=hidden;rotatable=0;points=[[0,0.5],[1,0.5]];portConstraint=eastwest;" parent="hbu7lBcHNOax9USATFB8-90" vertex="1">
          <mxGeometry y="78" width="190" height="26" as="geometry"/>
        </mxCell>
        <mxCell id="hbu7lBcHNOax9USATFB8-94" value="Correo: varchar(150)" style="text;strokeColor=#d6b656;fillColor=#fff2cc;align=left;verticalAlign=top;spacingLeft=4;spacingRight=4;overflow=hidden;rotatable=0;points=[[0,0.5],[1,0.5]];portConstraint=eastwest;" parent="hbu7lBcHNOax9USATFB8-90" vertex="1">
          <mxGeometry y="104" width="190" height="26" as="geometry"/>
        </mxCell>
        <mxCell id="hbu7lBcHNOax9USATFB8-95" value="ID_Suscriptor: bigInt" style="text;strokeColor=#d6b656;fillColor=#fff2cc;align=left;verticalAlign=top;spacingLeft=4;spacingRight=4;overflow=hidden;rotatable=0;points=[[0,0.5],[1,0.5]];portConstraint=eastwest;" parent="hbu7lBcHNOax9USATFB8-90" vertex="1">
          <mxGeometry y="130" width="190" height="26" as="geometry"/>
        </mxCell>
        <mxCell id="hbu7lBcHNOax9USATFB8-96" value="ID_Rol: bigInt" style="text;strokeColor=#d6b656;fillColor=#fff2cc;align=left;verticalAlign=top;spacingLeft=4;spacingRight=4;overflow=hidden;rotatable=0;points=[[0,0.5],[1,0.5]];portConstraint=eastwest;" parent="hbu7lBcHNOax9USATFB8-90" vertex="1">
          <mxGeometry y="156" width="190" height="26" as="geometry"/>
        </mxCell>
        <mxCell id="hbu7lBcHNOax9USATFB8-97" value="Premium: boolean" style="text;strokeColor=#d6b656;fillColor=#fff2cc;align=left;verticalAlign=top;spacingLeft=4;spacingRight=4;overflow=hidden;rotatable=0;points=[[0,0.5],[1,0.5]];portConstraint=eastwest;" parent="hbu7lBcHNOax9USATFB8-90" vertex="1">
          <mxGeometry y="182" width="190" height="26" as="geometry"/>
        </mxCell>
        <mxCell id="hbu7lBcHNOax9USATFB8-102" value="Suscriptor" style="swimlane;fontStyle=0;childLayout=stackLayout;horizontal=1;startSize=26;fillColor=#b1ddf0;horizontalStack=0;resizeParent=1;resizeParentMax=0;resizeLast=0;collapsible=1;marginBottom=0;strokeColor=#10739e;" parent="1" vertex="1">
          <mxGeometry x="280" y="1041.5" width="220" height="182" as="geometry"/>
        </mxCell>
        <mxCell id="hbu7lBcHNOax9USATFB8-103" value="ID_Suscriptor: bigSerial" style="text;strokeColor=#d6b656;fillColor=#fff2cc;align=left;verticalAlign=top;spacingLeft=4;spacingRight=4;overflow=hidden;rotatable=0;points=[[0,0.5],[1,0.5]];portConstraint=eastwest;" parent="hbu7lBcHNOax9USATFB8-102" vertex="1">
          <mxGeometry y="26" width="220" height="26" as="geometry"/>
        </mxCell>
        <mxCell id="hbu7lBcHNOax9USATFB8-104" value="Primer_Nombre: varchar(25)" style="text;strokeColor=#d6b656;fillColor=#fff2cc;align=left;verticalAlign=top;spacingLeft=4;spacingRight=4;overflow=hidden;rotatable=0;points=[[0,0.5],[1,0.5]];portConstraint=eastwest;" parent="hbu7lBcHNOax9USATFB8-102" vertex="1">
          <mxGeometry y="52" width="220" height="26" as="geometry"/>
        </mxCell>
        <mxCell id="hbu7lBcHNOax9USATFB8-105" value="Primer_Apellido: varchar(25)" style="text;strokeColor=#d6b656;fillColor=#fff2cc;align=left;verticalAlign=top;spacingLeft=4;spacingRight=4;overflow=hidden;rotatable=0;points=[[0,0.5],[1,0.5]];portConstraint=eastwest;" parent="hbu7lBcHNOax9USATFB8-102" vertex="1">
          <mxGeometry y="78" width="220" height="26" as="geometry"/>
        </mxCell>
        <mxCell id="hbu7lBcHNOax9USATFB8-106" value="Nacionalidad: varchar(25)" style="text;strokeColor=#d6b656;fillColor=#fff2cc;align=left;verticalAlign=top;spacingLeft=4;spacingRight=4;overflow=hidden;rotatable=0;points=[[0,0.5],[1,0.5]];portConstraint=eastwest;" parent="hbu7lBcHNOax9USATFB8-102" vertex="1">
          <mxGeometry y="104" width="220" height="26" as="geometry"/>
        </mxCell>
        <mxCell id="hbu7lBcHNOax9USATFB8-107" value="Fecha_Nacimiento: date" style="text;strokeColor=#d6b656;fillColor=#fff2cc;align=left;verticalAlign=top;spacingLeft=4;spacingRight=4;overflow=hidden;rotatable=0;points=[[0,0.5],[1,0.5]];portConstraint=eastwest;" parent="hbu7lBcHNOax9USATFB8-102" vertex="1">
          <mxGeometry y="130" width="220" height="26" as="geometry"/>
        </mxCell>
        <mxCell id="hbu7lBcHNOax9USATFB8-108" value="Teléfono: varchar(20)" style="text;strokeColor=#d6b656;fillColor=#fff2cc;align=left;verticalAlign=top;spacingLeft=4;spacingRight=4;overflow=hidden;rotatable=0;points=[[0,0.5],[1,0.5]];portConstraint=eastwest;" parent="hbu7lBcHNOax9USATFB8-102" vertex="1">
          <mxGeometry y="156" width="220" height="26" as="geometry"/>
        </mxCell>
        <mxCell id="hbu7lBcHNOax9USATFB8-109" value="Rol" style="swimlane;fontStyle=0;childLayout=stackLayout;horizontal=1;startSize=26;fillColor=#b1ddf0;horizontalStack=0;resizeParent=1;resizeParentMax=0;resizeLast=0;collapsible=1;marginBottom=0;strokeColor=#10739e;" parent="1" vertex="1">
          <mxGeometry x="50" y="1291" width="190" height="104" as="geometry"/>
        </mxCell>
        <mxCell id="hbu7lBcHNOax9USATFB8-110" value="ID_Rol: bigSerial" style="text;strokeColor=#d6b656;fillColor=#fff2cc;align=left;verticalAlign=top;spacingLeft=4;spacingRight=4;overflow=hidden;rotatable=0;points=[[0,0.5],[1,0.5]];portConstraint=eastwest;" parent="hbu7lBcHNOax9USATFB8-109" vertex="1">
          <mxGeometry y="26" width="190" height="26" as="geometry"/>
        </mxCell>
        <mxCell id="hbu7lBcHNOax9USATFB8-111" value="Nombre: varchar(25)" style="text;strokeColor=#d6b656;fillColor=#fff2cc;align=left;verticalAlign=top;spacingLeft=4;spacingRight=4;overflow=hidden;rotatable=0;points=[[0,0.5],[1,0.5]];portConstraint=eastwest;" parent="hbu7lBcHNOax9USATFB8-109" vertex="1">
          <mxGeometry y="52" width="190" height="26" as="geometry"/>
        </mxCell>
        <mxCell id="hbu7lBcHNOax9USATFB8-112" value="Descripción: varchar(100)" style="text;strokeColor=#d6b656;fillColor=#fff2cc;align=left;verticalAlign=top;spacingLeft=4;spacingRight=4;overflow=hidden;rotatable=0;points=[[0,0.5],[1,0.5]];portConstraint=eastwest;" parent="hbu7lBcHNOax9USATFB8-109" vertex="1">
          <mxGeometry y="78" width="190" height="26" as="geometry"/>
        </mxCell>
        <mxCell id="hbu7lBcHNOax9USATFB8-113" value="Membresía" style="swimlane;fontStyle=0;childLayout=stackLayout;horizontal=1;startSize=26;fillColor=#b1ddf0;horizontalStack=0;resizeParent=1;resizeParentMax=0;resizeLast=0;collapsible=1;marginBottom=0;strokeColor=#10739e;" parent="1" vertex="1">
          <mxGeometry x="290" y="1291" width="220" height="156" as="geometry"/>
        </mxCell>
        <mxCell id="hbu7lBcHNOax9USATFB8-114" value="ID_Membresía: bigSerial" style="text;strokeColor=#d6b656;fillColor=#fff2cc;align=left;verticalAlign=top;spacingLeft=4;spacingRight=4;overflow=hidden;rotatable=0;points=[[0,0.5],[1,0.5]];portConstraint=eastwest;" parent="hbu7lBcHNOax9USATFB8-113" vertex="1">
          <mxGeometry y="26" width="220" height="26" as="geometry"/>
        </mxCell>
        <mxCell id="hbu7lBcHNOax9USATFB8-115" value="ID_Compra: bigInt" style="text;strokeColor=#d6b656;fillColor=#fff2cc;align=left;verticalAlign=top;spacingLeft=4;spacingRight=4;overflow=hidden;rotatable=0;points=[[0,0.5],[1,0.5]];portConstraint=eastwest;" parent="hbu7lBcHNOax9USATFB8-113" vertex="1">
          <mxGeometry y="52" width="220" height="26" as="geometry"/>
        </mxCell>
        <mxCell id="hbu7lBcHNOax9USATFB8-116" value="ID_Usuario: bigInt" style="text;strokeColor=#d6b656;fillColor=#fff2cc;align=left;verticalAlign=top;spacingLeft=4;spacingRight=4;overflow=hidden;rotatable=0;points=[[0,0.5],[1,0.5]];portConstraint=eastwest;" parent="hbu7lBcHNOax9USATFB8-113" vertex="1">
          <mxGeometry y="78" width="220" height="26" as="geometry"/>
        </mxCell>
        <mxCell id="c2vd3Kx7htUIqJYGmM7q-9" value="Usuarios_en_uso: int" style="text;strokeColor=#d6b656;fillColor=#fff2cc;align=left;verticalAlign=top;spacingLeft=4;spacingRight=4;overflow=hidden;rotatable=0;points=[[0,0.5],[1,0.5]];portConstraint=eastwest;" vertex="1" parent="hbu7lBcHNOax9USATFB8-113">
          <mxGeometry y="104" width="220" height="26" as="geometry"/>
        </mxCell>
        <mxCell id="hbu7lBcHNOax9USATFB8-117" value="Fecha_Expiración: date" style="text;strokeColor=#d6b656;fillColor=#fff2cc;align=left;verticalAlign=top;spacingLeft=4;spacingRight=4;overflow=hidden;rotatable=0;points=[[0,0.5],[1,0.5]];portConstraint=eastwest;" parent="hbu7lBcHNOax9USATFB8-113" vertex="1">
          <mxGeometry y="130" width="220" height="26" as="geometry"/>
        </mxCell>
        <mxCell id="hbu7lBcHNOax9USATFB8-118" value="Plan" style="swimlane;fontStyle=0;childLayout=stackLayout;horizontal=1;startSize=26;fillColor=#b1ddf0;horizontalStack=0;resizeParent=1;resizeParentMax=0;resizeLast=0;collapsible=1;marginBottom=0;strokeColor=#10739e;" parent="1" vertex="1">
          <mxGeometry x="540" y="1040" width="190" height="208" as="geometry"/>
        </mxCell>
        <mxCell id="hbu7lBcHNOax9USATFB8-119" value="ID_Plan: bigSerial" style="text;strokeColor=#d6b656;fillColor=#fff2cc;align=left;verticalAlign=top;spacingLeft=4;spacingRight=4;overflow=hidden;rotatable=0;points=[[0,0.5],[1,0.5]];portConstraint=eastwest;" parent="hbu7lBcHNOax9USATFB8-118" vertex="1">
          <mxGeometry y="26" width="190" height="26" as="geometry"/>
        </mxCell>
        <mxCell id="hbu7lBcHNOax9USATFB8-120" value="Nombre: varchar(25)" style="text;strokeColor=#d6b656;fillColor=#fff2cc;align=left;verticalAlign=top;spacingLeft=4;spacingRight=4;overflow=hidden;rotatable=0;points=[[0,0.5],[1,0.5]];portConstraint=eastwest;" parent="hbu7lBcHNOax9USATFB8-118" vertex="1">
          <mxGeometry y="52" width="190" height="26" as="geometry"/>
        </mxCell>
        <mxCell id="c2vd3Kx7htUIqJYGmM7q-8" value="Cantidad_Usuarios: int" style="text;strokeColor=#d6b656;fillColor=#fff2cc;align=left;verticalAlign=top;spacingLeft=4;spacingRight=4;overflow=hidden;rotatable=0;points=[[0,0.5],[1,0.5]];portConstraint=eastwest;" vertex="1" parent="hbu7lBcHNOax9USATFB8-118">
          <mxGeometry y="78" width="190" height="26" as="geometry"/>
        </mxCell>
        <mxCell id="hbu7lBcHNOax9USATFB8-121" value="Descripción: varchar(200)" style="text;strokeColor=#d6b656;fillColor=#fff2cc;align=left;verticalAlign=top;spacingLeft=4;spacingRight=4;overflow=hidden;rotatable=0;points=[[0,0.5],[1,0.5]];portConstraint=eastwest;" parent="hbu7lBcHNOax9USATFB8-118" vertex="1">
          <mxGeometry y="104" width="190" height="26" as="geometry"/>
        </mxCell>
        <mxCell id="hbu7lBcHNOax9USATFB8-122" value="Precio: Double" style="text;strokeColor=#d6b656;fillColor=#fff2cc;align=left;verticalAlign=top;spacingLeft=4;spacingRight=4;overflow=hidden;rotatable=0;points=[[0,0.5],[1,0.5]];portConstraint=eastwest;" parent="hbu7lBcHNOax9USATFB8-118" vertex="1">
          <mxGeometry y="130" width="190" height="26" as="geometry"/>
        </mxCell>
        <mxCell id="hbu7lBcHNOax9USATFB8-123" value="Estado: boolean" style="text;strokeColor=#d6b656;fillColor=#fff2cc;align=left;verticalAlign=top;spacingLeft=4;spacingRight=4;overflow=hidden;rotatable=0;points=[[0,0.5],[1,0.5]];portConstraint=eastwest;" parent="hbu7lBcHNOax9USATFB8-118" vertex="1">
          <mxGeometry y="156" width="190" height="26" as="geometry"/>
        </mxCell>
        <mxCell id="hbu7lBcHNOax9USATFB8-130" value="Descuento: decimal" style="text;strokeColor=#d6b656;fillColor=#fff2cc;align=left;verticalAlign=top;spacingLeft=4;spacingRight=4;overflow=hidden;rotatable=0;points=[[0,0.5],[1,0.5]];portConstraint=eastwest;" parent="hbu7lBcHNOax9USATFB8-118" vertex="1">
          <mxGeometry y="182" width="190" height="26" as="geometry"/>
        </mxCell>
        <mxCell id="hbu7lBcHNOax9USATFB8-124" value="Compra" style="swimlane;fontStyle=0;childLayout=stackLayout;horizontal=1;startSize=26;fillColor=#b1ddf0;horizontalStack=0;resizeParent=1;resizeParentMax=0;resizeLast=0;collapsible=1;marginBottom=0;strokeColor=#10739e;" parent="1" vertex="1">
          <mxGeometry x="50" y="1480" width="180" height="156" as="geometry"/>
        </mxCell>
        <mxCell id="hbu7lBcHNOax9USATFB8-125" value="ID_Compra: bigSerial" style="text;strokeColor=#d6b656;fillColor=#fff2cc;align=left;verticalAlign=top;spacingLeft=4;spacingRight=4;overflow=hidden;rotatable=0;points=[[0,0.5],[1,0.5]];portConstraint=eastwest;" parent="hbu7lBcHNOax9USATFB8-124" vertex="1">
          <mxGeometry y="26" width="180" height="26" as="geometry"/>
        </mxCell>
        <mxCell id="hbu7lBcHNOax9USATFB8-126" value="ID_Plan: bigInt" style="text;strokeColor=#d6b656;fillColor=#fff2cc;align=left;verticalAlign=top;spacingLeft=4;spacingRight=4;overflow=hidden;rotatable=0;points=[[0,0.5],[1,0.5]];portConstraint=eastwest;" parent="hbu7lBcHNOax9USATFB8-124" vertex="1">
          <mxGeometry y="52" width="180" height="26" as="geometry"/>
        </mxCell>
        <mxCell id="hbu7lBcHNOax9USATFB8-127" value="ID_Usuario: bigInt" style="text;strokeColor=#d6b656;fillColor=#fff2cc;align=left;verticalAlign=top;spacingLeft=4;spacingRight=4;overflow=hidden;rotatable=0;points=[[0,0.5],[1,0.5]];portConstraint=eastwest;" parent="hbu7lBcHNOax9USATFB8-124" vertex="1">
          <mxGeometry y="78" width="180" height="26" as="geometry"/>
        </mxCell>
        <mxCell id="hbu7lBcHNOax9USATFB8-128" value="Fecha_Compra: date" style="text;strokeColor=#d6b656;fillColor=#fff2cc;align=left;verticalAlign=top;spacingLeft=4;spacingRight=4;overflow=hidden;rotatable=0;points=[[0,0.5],[1,0.5]];portConstraint=eastwest;" parent="hbu7lBcHNOax9USATFB8-124" vertex="1">
          <mxGeometry y="104" width="180" height="26" as="geometry"/>
        </mxCell>
        <mxCell id="hbu7lBcHNOax9USATFB8-129" value="Descuento: decimal" style="text;strokeColor=#d6b656;fillColor=#fff2cc;align=left;verticalAlign=top;spacingLeft=4;spacingRight=4;overflow=hidden;rotatable=0;points=[[0,0.5],[1,0.5]];portConstraint=eastwest;" parent="hbu7lBcHNOax9USATFB8-124" vertex="1">
          <mxGeometry y="130" width="180" height="26" as="geometry"/>
        </mxCell>
        <mxCell id="hbu7lBcHNOax9USATFB8-140" style="edgeStyle=orthogonalEdgeStyle;rounded=0;orthogonalLoop=1;jettySize=auto;html=1;exitX=0;exitY=0.5;exitDx=0;exitDy=0;entryX=0;entryY=0.5;entryDx=0;entryDy=0;" parent="1" source="hbu7lBcHNOax9USATFB8-31" target="hbu7lBcHNOax9USATFB8-12" edge="1">
          <mxGeometry relative="1" as="geometry"/>
        </mxCell>
        <mxCell id="hbu7lBcHNOax9USATFB8-141" style="edgeStyle=orthogonalEdgeStyle;rounded=0;orthogonalLoop=1;jettySize=auto;html=1;exitX=1;exitY=0.5;exitDx=0;exitDy=0;entryX=0;entryY=0.5;entryDx=0;entryDy=0;" parent="1" source="hbu7lBcHNOax9USATFB8-32" target="hbu7lBcHNOax9USATFB8-19" edge="1">
          <mxGeometry relative="1" as="geometry"/>
        </mxCell>
        <mxCell id="hbu7lBcHNOax9USATFB8-142" style="edgeStyle=orthogonalEdgeStyle;rounded=0;orthogonalLoop=1;jettySize=auto;html=1;exitX=0;exitY=0.5;exitDx=0;exitDy=0;entryX=1;entryY=0.5;entryDx=0;entryDy=0;" parent="1" source="hbu7lBcHNOax9USATFB8-35" target="hbu7lBcHNOax9USATFB8-12" edge="1">
          <mxGeometry relative="1" as="geometry"/>
        </mxCell>
        <mxCell id="hbu7lBcHNOax9USATFB8-143" style="edgeStyle=orthogonalEdgeStyle;rounded=0;orthogonalLoop=1;jettySize=auto;html=1;exitX=1;exitY=0.5;exitDx=0;exitDy=0;entryX=0;entryY=0.5;entryDx=0;entryDy=0;" parent="1" source="hbu7lBcHNOax9USATFB8-36" target="hbu7lBcHNOax9USATFB8-26" edge="1">
          <mxGeometry relative="1" as="geometry">
            <Array as="points">
              <mxPoint x="500" y="340"/>
              <mxPoint x="500" y="79"/>
            </Array>
          </mxGeometry>
        </mxCell>
        <mxCell id="hbu7lBcHNOax9USATFB8-144" style="edgeStyle=orthogonalEdgeStyle;rounded=0;orthogonalLoop=1;jettySize=auto;html=1;exitX=0;exitY=0.5;exitDx=0;exitDy=0;entryX=1;entryY=0.5;entryDx=0;entryDy=0;" parent="1" source="hbu7lBcHNOax9USATFB8-39" target="hbu7lBcHNOax9USATFB8-19" edge="1">
          <mxGeometry relative="1" as="geometry"/>
        </mxCell>
        <mxCell id="hbu7lBcHNOax9USATFB8-145" style="edgeStyle=orthogonalEdgeStyle;rounded=0;orthogonalLoop=1;jettySize=auto;html=1;exitX=1;exitY=0.5;exitDx=0;exitDy=0;entryX=1;entryY=0.5;entryDx=0;entryDy=0;" parent="1" source="hbu7lBcHNOax9USATFB8-40" target="hbu7lBcHNOax9USATFB8-26" edge="1">
          <mxGeometry relative="1" as="geometry"/>
        </mxCell>
        <mxCell id="hbu7lBcHNOax9USATFB8-146" style="edgeStyle=orthogonalEdgeStyle;rounded=0;orthogonalLoop=1;jettySize=auto;html=1;exitX=1;exitY=0.5;exitDx=0;exitDy=0;" parent="1" source="hbu7lBcHNOax9USATFB8-43" target="hbu7lBcHNOax9USATFB8-47" edge="1">
          <mxGeometry relative="1" as="geometry"/>
        </mxCell>
        <mxCell id="hbu7lBcHNOax9USATFB8-147" style="edgeStyle=orthogonalEdgeStyle;rounded=0;orthogonalLoop=1;jettySize=auto;html=1;exitX=0;exitY=0.5;exitDx=0;exitDy=0;entryX=1;entryY=0.25;entryDx=0;entryDy=0;" parent="1" source="hbu7lBcHNOax9USATFB8-54" target="hbu7lBcHNOax9USATFB8-46" edge="1">
          <mxGeometry relative="1" as="geometry"/>
        </mxCell>
        <mxCell id="hbu7lBcHNOax9USATFB8-148" style="edgeStyle=orthogonalEdgeStyle;rounded=0;orthogonalLoop=1;jettySize=auto;html=1;exitX=0;exitY=0.5;exitDx=0;exitDy=0;entryX=0;entryY=0.5;entryDx=0;entryDy=0;" parent="1" source="hbu7lBcHNOax9USATFB8-44" target="hbu7lBcHNOax9USATFB8-12" edge="1">
          <mxGeometry relative="1" as="geometry"/>
        </mxCell>
        <mxCell id="hbu7lBcHNOax9USATFB8-149" style="edgeStyle=orthogonalEdgeStyle;rounded=0;orthogonalLoop=1;jettySize=auto;html=1;exitX=1;exitY=0.5;exitDx=0;exitDy=0;entryX=1;entryY=0.5;entryDx=0;entryDy=0;" parent="1" source="hbu7lBcHNOax9USATFB8-55" target="hbu7lBcHNOax9USATFB8-26" edge="1">
          <mxGeometry relative="1" as="geometry"/>
        </mxCell>
        <mxCell id="hbu7lBcHNOax9USATFB8-150" style="edgeStyle=orthogonalEdgeStyle;rounded=0;orthogonalLoop=1;jettySize=auto;html=1;exitX=1;exitY=0.5;exitDx=0;exitDy=0;entryX=0;entryY=0.5;entryDx=0;entryDy=0;" parent="1" source="hbu7lBcHNOax9USATFB8-59" target="hbu7lBcHNOax9USATFB8-65" edge="1">
          <mxGeometry relative="1" as="geometry"/>
        </mxCell>
        <mxCell id="hbu7lBcHNOax9USATFB8-151" style="edgeStyle=orthogonalEdgeStyle;rounded=0;orthogonalLoop=1;jettySize=auto;html=1;exitX=0;exitY=0.5;exitDx=0;exitDy=0;entryX=1;entryY=0.25;entryDx=0;entryDy=0;" parent="1" source="hbu7lBcHNOax9USATFB8-72" target="hbu7lBcHNOax9USATFB8-64" edge="1">
          <mxGeometry relative="1" as="geometry"/>
        </mxCell>
        <mxCell id="hbu7lBcHNOax9USATFB8-154" style="edgeStyle=orthogonalEdgeStyle;rounded=0;orthogonalLoop=1;jettySize=auto;html=1;exitX=1;exitY=0.5;exitDx=0;exitDy=0;" parent="1" source="hbu7lBcHNOax9USATFB8-77" target="hbu7lBcHNOax9USATFB8-79" edge="1">
          <mxGeometry relative="1" as="geometry"/>
        </mxCell>
        <mxCell id="hbu7lBcHNOax9USATFB8-155" style="edgeStyle=orthogonalEdgeStyle;rounded=0;orthogonalLoop=1;jettySize=auto;html=1;exitX=0;exitY=0.5;exitDx=0;exitDy=0;entryX=1;entryY=0.5;entryDx=0;entryDy=0;" parent="1" source="hbu7lBcHNOax9USATFB8-88" target="hbu7lBcHNOax9USATFB8-79" edge="1">
          <mxGeometry relative="1" as="geometry"/>
        </mxCell>
        <mxCell id="hbu7lBcHNOax9USATFB8-157" style="edgeStyle=orthogonalEdgeStyle;rounded=0;orthogonalLoop=1;jettySize=auto;html=1;exitX=1;exitY=0.5;exitDx=0;exitDy=0;entryX=1;entryY=0.5;entryDx=0;entryDy=0;" parent="1" source="hbu7lBcHNOax9USATFB8-76" target="hbu7lBcHNOax9USATFB8-30" edge="1">
          <mxGeometry relative="1" as="geometry">
            <Array as="points">
              <mxPoint x="230" y="805"/>
              <mxPoint x="230" y="289"/>
            </Array>
          </mxGeometry>
        </mxCell>
        <mxCell id="hbu7lBcHNOax9USATFB8-159" style="edgeStyle=orthogonalEdgeStyle;rounded=0;orthogonalLoop=1;jettySize=auto;html=1;exitX=0;exitY=0.5;exitDx=0;exitDy=0;entryX=1;entryY=0.5;entryDx=0;entryDy=0;" parent="1" source="hbu7lBcHNOax9USATFB8-73" target="hbu7lBcHNOax9USATFB8-19" edge="1">
          <mxGeometry relative="1" as="geometry">
            <Array as="points">
              <mxPoint x="510" y="651"/>
              <mxPoint x="510" y="79"/>
            </Array>
          </mxGeometry>
        </mxCell>
        <mxCell id="hbu7lBcHNOax9USATFB8-162" style="edgeStyle=orthogonalEdgeStyle;rounded=0;orthogonalLoop=1;jettySize=auto;html=1;exitX=0;exitY=0.5;exitDx=0;exitDy=0;entryX=1;entryY=0.5;entryDx=0;entryDy=0;" parent="1" source="hbu7lBcHNOax9USATFB8-89" target="hbu7lBcHNOax9USATFB8-19" edge="1">
          <mxGeometry relative="1" as="geometry">
            <Array as="points">
              <mxPoint x="520" y="831"/>
              <mxPoint x="520" y="79"/>
            </Array>
          </mxGeometry>
        </mxCell>
        <mxCell id="hbu7lBcHNOax9USATFB8-165" style="edgeStyle=orthogonalEdgeStyle;rounded=0;orthogonalLoop=1;jettySize=auto;html=1;exitX=0;exitY=0.5;exitDx=0;exitDy=0;entryX=0;entryY=0.5;entryDx=0;entryDy=0;" parent="1" source="hbu7lBcHNOax9USATFB8-96" target="hbu7lBcHNOax9USATFB8-110" edge="1">
          <mxGeometry relative="1" as="geometry"/>
        </mxCell>
        <mxCell id="hbu7lBcHNOax9USATFB8-166" style="edgeStyle=orthogonalEdgeStyle;rounded=0;orthogonalLoop=1;jettySize=auto;html=1;exitX=0;exitY=0.5;exitDx=0;exitDy=0;entryX=1;entryY=0.5;entryDx=0;entryDy=0;" parent="1" source="hbu7lBcHNOax9USATFB8-160" target="hbu7lBcHNOax9USATFB8-91" edge="1">
          <mxGeometry relative="1" as="geometry">
            <Array as="points">
              <mxPoint x="260" y="961"/>
              <mxPoint x="260" y="1079"/>
            </Array>
          </mxGeometry>
        </mxCell>
        <mxCell id="hbu7lBcHNOax9USATFB8-167" style="edgeStyle=orthogonalEdgeStyle;rounded=0;orthogonalLoop=1;jettySize=auto;html=1;exitX=0;exitY=0.5;exitDx=0;exitDy=0;entryX=1;entryY=0.5;entryDx=0;entryDy=0;" parent="1" source="hbu7lBcHNOax9USATFB8-115" target="hbu7lBcHNOax9USATFB8-125" edge="1">
          <mxGeometry relative="1" as="geometry"/>
        </mxCell>
        <mxCell id="hbu7lBcHNOax9USATFB8-168" style="edgeStyle=orthogonalEdgeStyle;rounded=0;orthogonalLoop=1;jettySize=auto;html=1;exitX=0;exitY=0.5;exitDx=0;exitDy=0;entryX=0;entryY=0.5;entryDx=0;entryDy=0;" parent="1" source="hbu7lBcHNOax9USATFB8-127" target="hbu7lBcHNOax9USATFB8-91" edge="1">
          <mxGeometry relative="1" as="geometry"/>
        </mxCell>
        <mxCell id="hbu7lBcHNOax9USATFB8-169" style="edgeStyle=orthogonalEdgeStyle;rounded=0;orthogonalLoop=1;jettySize=auto;html=1;exitX=1;exitY=0.5;exitDx=0;exitDy=0;entryX=0;entryY=0.5;entryDx=0;entryDy=0;" parent="1" source="hbu7lBcHNOax9USATFB8-126" target="hbu7lBcHNOax9USATFB8-119" edge="1">
          <mxGeometry relative="1" as="geometry">
            <Array as="points">
              <mxPoint x="520" y="1545"/>
              <mxPoint x="520" y="1079"/>
            </Array>
          </mxGeometry>
        </mxCell>
        <mxCell id="hbu7lBcHNOax9USATFB8-170" style="edgeStyle=orthogonalEdgeStyle;rounded=0;orthogonalLoop=1;jettySize=auto;html=1;exitX=0;exitY=0.5;exitDx=0;exitDy=0;entryX=1;entryY=0.5;entryDx=0;entryDy=0;" parent="1" source="hbu7lBcHNOax9USATFB8-116" target="hbu7lBcHNOax9USATFB8-91" edge="1">
          <mxGeometry relative="1" as="geometry">
            <Array as="points">
              <mxPoint x="260" y="1382"/>
              <mxPoint x="260" y="1079"/>
            </Array>
          </mxGeometry>
        </mxCell>
        <mxCell id="hbu7lBcHNOax9USATFB8-171" value="Reproducciones" style="swimlane;fontStyle=0;childLayout=stackLayout;horizontal=1;startSize=26;fillColor=#b1ddf0;horizontalStack=0;resizeParent=1;resizeParentMax=0;resizeLast=0;collapsible=1;marginBottom=0;strokeColor=#10739e;" parent="1" vertex="1">
          <mxGeometry x="50" y="896" width="200" height="104" as="geometry"/>
        </mxCell>
        <mxCell id="hbu7lBcHNOax9USATFB8-172" value="ID_Reproduccion: bigSerial" style="text;strokeColor=#d6b656;fillColor=#fff2cc;align=left;verticalAlign=top;spacingLeft=4;spacingRight=4;overflow=hidden;rotatable=0;points=[[0,0.5],[1,0.5]];portConstraint=eastwest;" parent="hbu7lBcHNOax9USATFB8-171" vertex="1">
          <mxGeometry y="26" width="200" height="26" as="geometry"/>
        </mxCell>
        <mxCell id="hbu7lBcHNOax9USATFB8-173" value="ID_Canción: bigInt" style="text;strokeColor=#d6b656;fillColor=#fff2cc;align=left;verticalAlign=top;spacingLeft=4;spacingRight=4;overflow=hidden;rotatable=0;points=[[0,0.5],[1,0.5]];portConstraint=eastwest;" parent="hbu7lBcHNOax9USATFB8-171" vertex="1">
          <mxGeometry y="52" width="200" height="26" as="geometry"/>
        </mxCell>
        <mxCell id="hbu7lBcHNOax9USATFB8-174" value="ID_Usuario: bigInt" style="text;strokeColor=#d6b656;fillColor=#fff2cc;align=left;verticalAlign=top;spacingLeft=4;spacingRight=4;overflow=hidden;rotatable=0;points=[[0,0.5],[1,0.5]];portConstraint=eastwest;" parent="hbu7lBcHNOax9USATFB8-171" vertex="1">
          <mxGeometry y="78" width="200" height="26" as="geometry"/>
        </mxCell>
        <mxCell id="hbu7lBcHNOax9USATFB8-175" style="edgeStyle=orthogonalEdgeStyle;rounded=0;orthogonalLoop=1;jettySize=auto;html=1;exitX=0;exitY=0.5;exitDx=0;exitDy=0;entryX=0;entryY=0.5;entryDx=0;entryDy=0;" parent="1" source="hbu7lBcHNOax9USATFB8-174" target="hbu7lBcHNOax9USATFB8-91" edge="1">
          <mxGeometry relative="1" as="geometry"/>
        </mxCell>
        <mxCell id="hbu7lBcHNOax9USATFB8-176" style="edgeStyle=orthogonalEdgeStyle;rounded=0;orthogonalLoop=1;jettySize=auto;html=1;exitX=0;exitY=0.5;exitDx=0;exitDy=0;entryX=0;entryY=0.5;entryDx=0;entryDy=0;" parent="1" source="hbu7lBcHNOax9USATFB8-173" target="hbu7lBcHNOax9USATFB8-30" edge="1">
          <mxGeometry relative="1" as="geometry"/>
        </mxCell>
        <mxCell id="L63vPJR1Lofy7fTA4JFa-2" value="1" style="text;html=1;align=center;verticalAlign=middle;resizable=0;points=[];;autosize=1;" parent="1" vertex="1">
          <mxGeometry x="35" y="1191" width="20" height="20" as="geometry"/>
        </mxCell>
        <mxCell id="L63vPJR1Lofy7fTA4JFa-3" value="1" style="text;html=1;align=center;verticalAlign=middle;resizable=0;points=[];;autosize=1;" parent="1" vertex="1">
          <mxGeometry x="35" y="1309" width="20" height="20" as="geometry"/>
        </mxCell>
        <mxCell id="L63vPJR1Lofy7fTA4JFa-5" value="1" style="text;html=1;align=center;verticalAlign=middle;resizable=0;points=[];;autosize=1;" parent="1" vertex="1">
          <mxGeometry x="36" y="1058" width="20" height="20" as="geometry"/>
        </mxCell>
        <mxCell id="L63vPJR1Lofy7fTA4JFa-6" value="n" style="text;html=1;align=center;verticalAlign=middle;resizable=0;points=[];;autosize=1;" parent="1" vertex="1">
          <mxGeometry x="36" y="980" width="20" height="20" as="geometry"/>
        </mxCell>
        <mxCell id="L63vPJR1Lofy7fTA4JFa-7" value="1" style="text;html=1;align=center;verticalAlign=middle;resizable=0;points=[];;autosize=1;" parent="1" vertex="1">
          <mxGeometry x="35" y="268" width="20" height="20" as="geometry"/>
        </mxCell>
        <mxCell id="L63vPJR1Lofy7fTA4JFa-8" value="n" style="text;html=1;align=center;verticalAlign=middle;resizable=0;points=[];;autosize=1;" parent="1" vertex="1">
          <mxGeometry x="35" y="944" width="20" height="20" as="geometry"/>
        </mxCell>
        <mxCell id="L63vPJR1Lofy7fTA4JFa-9" value="1" style="text;html=1;align=center;verticalAlign=middle;resizable=0;points=[];;autosize=1;" parent="1" vertex="1">
          <mxGeometry x="266" y="579" width="20" height="20" as="geometry"/>
        </mxCell>
        <mxCell id="L63vPJR1Lofy7fTA4JFa-10" value="n" style="text;html=1;align=center;verticalAlign=middle;resizable=0;points=[];;autosize=1;" parent="1" vertex="1">
          <mxGeometry x="205" y="634" width="20" height="20" as="geometry"/>
        </mxCell>
        <mxCell id="L63vPJR1Lofy7fTA4JFa-11" value="1" style="text;html=1;align=center;verticalAlign=middle;resizable=0;points=[];;autosize=1;" parent="1" vertex="1">
          <mxGeometry x="36" y="58" width="20" height="20" as="geometry"/>
        </mxCell>
        <mxCell id="L63vPJR1Lofy7fTA4JFa-12" value="n" style="text;html=1;align=center;verticalAlign=middle;resizable=0;points=[];;autosize=1;" parent="1" vertex="1">
          <mxGeometry x="36" y="608" width="20" height="20" as="geometry"/>
        </mxCell>
        <mxCell id="L63vPJR1Lofy7fTA4JFa-13" style="edgeStyle=orthogonalEdgeStyle;rounded=0;orthogonalLoop=1;jettySize=auto;html=1;exitX=0;exitY=0.5;exitDx=0;exitDy=0;entryX=0;entryY=0.5;entryDx=0;entryDy=0;" parent="1" source="hbu7lBcHNOax9USATFB8-58" target="hbu7lBcHNOax9USATFB8-30" edge="1">
          <mxGeometry relative="1" as="geometry"/>
        </mxCell>
        <mxCell id="L63vPJR1Lofy7fTA4JFa-15" value="1" style="text;html=1;align=center;verticalAlign=middle;resizable=0;points=[];;autosize=1;" parent="1" vertex="1">
          <mxGeometry x="216" y="58" width="20" height="20" as="geometry"/>
        </mxCell>
        <mxCell id="L63vPJR1Lofy7fTA4JFa-16" value="n" style="text;html=1;align=center;verticalAlign=middle;resizable=0;points=[];;autosize=1;" parent="1" vertex="1">
          <mxGeometry x="264" y="297" width="20" height="20" as="geometry"/>
        </mxCell>
        <mxCell id="L63vPJR1Lofy7fTA4JFa-17" value="1" style="text;html=1;align=center;verticalAlign=middle;resizable=0;points=[];;autosize=1;" parent="1" vertex="1">
          <mxGeometry x="265" y="58" width="20" height="20" as="geometry"/>
        </mxCell>
        <mxCell id="L63vPJR1Lofy7fTA4JFa-18" value="n" style="text;html=1;align=center;verticalAlign=middle;resizable=0;points=[];;autosize=1;" parent="1" vertex="1">
          <mxGeometry x="186" y="324" width="20" height="20" as="geometry"/>
        </mxCell>
        <mxCell id="L63vPJR1Lofy7fTA4JFa-19" value="1" style="text;html=1;align=center;verticalAlign=middle;resizable=0;points=[];;autosize=1;" parent="1" vertex="1">
          <mxGeometry x="526" y="58" width="20" height="20" as="geometry"/>
        </mxCell>
        <mxCell id="L63vPJR1Lofy7fTA4JFa-20" value="n" style="text;html=1;align=center;verticalAlign=middle;resizable=0;points=[];;autosize=1;direction=south;" parent="1" vertex="1">
          <mxGeometry x="416" y="323" width="20" height="20" as="geometry"/>
        </mxCell>
        <mxCell id="L63vPJR1Lofy7fTA4JFa-21" value="1" style="text;html=1;align=center;verticalAlign=middle;resizable=0;points=[];;autosize=1;" parent="1" vertex="1">
          <mxGeometry x="736" y="58" width="20" height="20" as="geometry"/>
        </mxCell>
        <mxCell id="L63vPJR1Lofy7fTA4JFa-22" value="n" style="text;html=1;align=center;verticalAlign=middle;resizable=0;points=[];;autosize=1;" parent="1" vertex="1">
          <mxGeometry x="697" y="324" width="20" height="20" as="geometry"/>
        </mxCell>
        <mxCell id="L63vPJR1Lofy7fTA4JFa-23" value="1" style="text;html=1;align=center;verticalAlign=middle;resizable=0;points=[];;autosize=1;" parent="1" vertex="1">
          <mxGeometry x="476" y="58" width="20" height="20" as="geometry"/>
        </mxCell>
        <mxCell id="L63vPJR1Lofy7fTA4JFa-24" value="n" style="text;html=1;align=center;verticalAlign=middle;resizable=0;points=[];;autosize=1;" parent="1" vertex="1">
          <mxGeometry x="526" y="298" width="20" height="20" as="geometry"/>
        </mxCell>
        <mxCell id="L63vPJR1Lofy7fTA4JFa-25" value="1" style="text;html=1;align=center;verticalAlign=middle;resizable=0;points=[];;autosize=1;" parent="1" vertex="1">
          <mxGeometry x="266" y="398" width="20" height="20" as="geometry"/>
        </mxCell>
        <mxCell id="L63vPJR1Lofy7fTA4JFa-26" value="n" style="text;html=1;align=center;verticalAlign=middle;resizable=0;points=[];;autosize=1;" parent="1" vertex="1">
          <mxGeometry x="206" y="428" width="20" height="20" as="geometry"/>
        </mxCell>
        <mxCell id="L63vPJR1Lofy7fTA4JFa-27" value="1" style="text;html=1;align=center;verticalAlign=middle;resizable=0;points=[];;autosize=1;" parent="1" vertex="1">
          <mxGeometry x="237" y="1058" width="20" height="20" as="geometry"/>
        </mxCell>
        <mxCell id="L63vPJR1Lofy7fTA4JFa-28" value="n" style="text;html=1;align=center;verticalAlign=middle;resizable=0;points=[];;autosize=1;" parent="1" vertex="1">
          <mxGeometry x="266" y="943" width="20" height="20" as="geometry"/>
        </mxCell>
        <mxCell id="L63vPJR1Lofy7fTA4JFa-30" value="1" style="text;html=1;align=center;verticalAlign=middle;resizable=0;points=[];;autosize=1;" parent="1" vertex="1">
          <mxGeometry x="266" y="1058" width="20" height="20" as="geometry"/>
        </mxCell>
        <mxCell id="L63vPJR1Lofy7fTA4JFa-31" style="edgeStyle=orthogonalEdgeStyle;rounded=0;orthogonalLoop=1;jettySize=auto;html=1;exitX=1;exitY=0.5;exitDx=0;exitDy=0;entryX=0;entryY=0.5;entryDx=0;entryDy=0;" parent="1" source="hbu7lBcHNOax9USATFB8-95" target="hbu7lBcHNOax9USATFB8-103" edge="1">
          <mxGeometry relative="1" as="geometry"/>
        </mxCell>
        <mxCell id="L63vPJR1Lofy7fTA4JFa-32" value="1" style="text;html=1;align=center;verticalAlign=middle;resizable=0;points=[];;autosize=1;" parent="1" vertex="1">
          <mxGeometry x="236" y="1166" width="20" height="20" as="geometry"/>
        </mxCell>
        <mxCell id="L63vPJR1Lofy7fTA4JFa-33" value="1" style="text;html=1;align=center;verticalAlign=middle;resizable=0;points=[];;autosize=1;" parent="1" vertex="1">
          <mxGeometry x="526" y="1058" width="20" height="20" as="geometry"/>
        </mxCell>
        <mxCell id="L63vPJR1Lofy7fTA4JFa-34" value="n" style="text;html=1;align=center;verticalAlign=middle;resizable=0;points=[];;autosize=1;" parent="1" vertex="1">
          <mxGeometry x="226" y="1528" width="20" height="20" as="geometry"/>
        </mxCell>
        <mxCell id="L63vPJR1Lofy7fTA4JFa-35" value="1" style="text;html=1;align=center;verticalAlign=middle;resizable=0;points=[];;autosize=1;" parent="1" vertex="1">
          <mxGeometry x="226" y="1498" width="20" height="20" as="geometry"/>
        </mxCell>
        <mxCell id="L63vPJR1Lofy7fTA4JFa-36" value="n" style="text;html=1;align=center;verticalAlign=middle;resizable=0;points=[];;autosize=1;" parent="1" vertex="1">
          <mxGeometry x="274" y="1339" width="20" height="20" as="geometry"/>
        </mxCell>
        <mxCell id="L63vPJR1Lofy7fTA4JFa-37" value="n" style="text;html=1;align=center;verticalAlign=middle;resizable=0;points=[];;autosize=1;" parent="1" vertex="1">
          <mxGeometry x="274" y="1364.5" width="20" height="20" as="geometry"/>
        </mxCell>
        <mxCell id="L63vPJR1Lofy7fTA4JFa-38" value="1" style="text;html=1;align=center;verticalAlign=middle;resizable=0;points=[];;autosize=1;" parent="1" vertex="1">
          <mxGeometry x="266" y="758" width="20" height="20" as="geometry"/>
        </mxCell>
        <mxCell id="L63vPJR1Lofy7fTA4JFa-39" value="n" style="text;html=1;align=center;verticalAlign=middle;resizable=0;points=[];;autosize=1;" parent="1" vertex="1">
          <mxGeometry x="186" y="814" width="20" height="20" as="geometry"/>
        </mxCell>
        <mxCell id="L63vPJR1Lofy7fTA4JFa-40" value="1" style="text;html=1;align=center;verticalAlign=middle;resizable=0;points=[];;autosize=1;" parent="1" vertex="1">
          <mxGeometry x="496" y="758" width="20" height="20" as="geometry"/>
        </mxCell>
        <mxCell id="L63vPJR1Lofy7fTA4JFa-42" value="n" style="text;html=1;align=center;verticalAlign=middle;resizable=0;points=[];;autosize=1;" parent="1" vertex="1">
          <mxGeometry x="525" y="788" width="20" height="20" as="geometry"/>
        </mxCell>
        <mxCell id="L63vPJR1Lofy7fTA4JFa-43" value="n" style="text;html=1;align=center;verticalAlign=middle;resizable=0;points=[];;autosize=1;" parent="1" vertex="1">
          <mxGeometry x="526" y="814" width="20" height="20" as="geometry"/>
        </mxCell>
        <mxCell id="L63vPJR1Lofy7fTA4JFa-44" value="1" style="text;html=1;align=center;verticalAlign=middle;resizable=0;points=[];;autosize=1;" parent="1" vertex="1">
          <mxGeometry x="497" y="397" width="20" height="20" as="geometry"/>
        </mxCell>
        <mxCell id="L63vPJR1Lofy7fTA4JFa-45" value="n" style="text;html=1;align=center;verticalAlign=middle;resizable=0;points=[];;autosize=1;" parent="1" vertex="1">
          <mxGeometry x="524" y="608" width="20" height="20" as="geometry"/>
        </mxCell>
        <mxCell id="L63vPJR1Lofy7fTA4JFa-46" value="n" style="text;html=1;align=center;verticalAlign=middle;resizable=0;points=[];;autosize=1;" parent="1" vertex="1">
          <mxGeometry x="524" y="634" width="20" height="20" as="geometry"/>
        </mxCell>
        <mxCell id="L63vPJR1Lofy7fTA4JFa-48" value="n" style="text;html=1;align=center;verticalAlign=middle;resizable=0;points=[];;autosize=1;" parent="1" vertex="1">
          <mxGeometry x="696" y="454" width="20" height="20" as="geometry"/>
        </mxCell>
        <mxCell id="L63vPJR1Lofy7fTA4JFa-50" value="n" style="text;html=1;align=center;verticalAlign=middle;resizable=0;points=[];;autosize=1;" parent="1" vertex="1">
          <mxGeometry x="186" y="788" width="20" height="20" as="geometry"/>
        </mxCell>
        <mxCell id="L63vPJR1Lofy7fTA4JFa-51" value="n" style="text;html=1;align=center;verticalAlign=middle;resizable=0;points=[];;autosize=1;" parent="1" vertex="1">
          <mxGeometry x="35" y="454" width="20" height="20" as="geometry"/>
        </mxCell>
        <mxCell id="L63vPJR1Lofy7fTA4JFa-53" value="n" style="text;html=1;align=center;verticalAlign=middle;resizable=0;points=[];;autosize=1;" parent="1" vertex="1">
          <mxGeometry x="35" y="298" width="20" height="20" as="geometry"/>
        </mxCell>
        <mxCell id="L63vPJR1Lofy7fTA4JFa-54" value="1" style="text;html=1;align=center;verticalAlign=middle;resizable=0;points=[];;autosize=1;" parent="1" vertex="1">
          <mxGeometry x="187" y="269" width="20" height="20" as="geometry"/>
        </mxCell>
        <mxCell id="L63vPJR1Lofy7fTA4JFa-55" value="n" style="text;html=1;align=center;verticalAlign=middle;resizable=0;points=[];;autosize=1;" parent="1" vertex="1">
          <mxGeometry x="35" y="1554" width="20" height="20" as="geometry"/>
        </mxCell>
        <mxCell id="EF5-dGf_iFRgHGlRwM2j-1" value="1" style="text;html=1;align=center;verticalAlign=middle;resizable=0;points=[];;autosize=1;" parent="1" vertex="1">
          <mxGeometry x="497" y="579" width="20" height="20" as="geometry"/>
        </mxCell>
      </root>
    </mxGraphModel>
  </diagram>
</mxfile>
